<svg width="50" height="50" viewBox="0 0 50 50" fill="none" xmlns="http://www.w3.org/2000/svg">
<mask id="path-1-inside-1_1535_505" fill="white">
<path d="M29.1667 2.08333V0C40.6542 0 50 9.34583 50 20.8333H47.9167C47.9167 10.4958 39.5042 2.08333 29.1667 2.08333ZM39.5833 20.8333H41.6667C41.6667 13.9396 36.0604 8.33333 29.1667 8.33333V10.4167C34.9104 10.4167 39.5833 15.0896 39.5833 20.8333ZM36.5146 28.8271L48.3458 40.6583L42.3479 46.6562C40.1958 48.8125 37.2812 50 34.1375 50C19.1437 50 0 30.8583 0 15.8604C0 12.7167 1.1875 9.80208 3.34375 7.65L9.34167 1.65208L21.1729 13.4833L14.1458 20.5104C17.2833 27.925 22.3104 32.9562 29.4792 35.8625L36.5146 28.8271ZM45.4 40.6583L36.5146 31.7729L29.9937 38.2958L29.3625 38.0542C21.1958 34.9375 15.3375 29.0833 11.9521 20.6542L11.6958 20.0146L18.2271 13.4833L9.34167 4.59792L4.81667 9.12292C3.05417 10.8813 2.08333 13.275 2.08333 15.8604C2.08333 29.6417 20.3583 47.9167 34.1396 47.9167C36.725 47.9167 39.1167 46.9458 40.875 45.1833L45.4 40.6583Z"/>
</mask>
<path d="M29.1667 2.08333V0C40.6542 0 50 9.34583 50 20.8333H47.9167C47.9167 10.4958 39.5042 2.08333 29.1667 2.08333ZM39.5833 20.8333H41.6667C41.6667 13.9396 36.0604 8.33333 29.1667 8.33333V10.4167C34.9104 10.4167 39.5833 15.0896 39.5833 20.8333ZM36.5146 28.8271L48.3458 40.6583L42.3479 46.6562C40.1958 48.8125 37.2812 50 34.1375 50C19.1437 50 0 30.8583 0 15.8604C0 12.7167 1.1875 9.80208 3.34375 7.65L9.34167 1.65208L21.1729 13.4833L14.1458 20.5104C17.2833 27.925 22.3104 32.9562 29.4792 35.8625L36.5146 28.8271ZM45.4 40.6583L36.5146 31.7729L29.9937 38.2958L29.3625 38.0542C21.1958 34.9375 15.3375 29.0833 11.9521 20.6542L11.6958 20.0146L18.2271 13.4833L9.34167 4.59792L4.81667 9.12292C3.05417 10.8813 2.08333 13.275 2.08333 15.8604C2.08333 29.6417 20.3583 47.9167 34.1396 47.9167C36.725 47.9167 39.1167 46.9458 40.875 45.1833L45.4 40.6583Z" fill="url(#paint0_linear_1535_505)"/>
<path d="M29.1667 2.08333H7.83333V23.4167H29.1667V2.08333ZM29.1667 0V-21.3333H7.83333V0H29.1667ZM50 20.8333V42.1667H71.3333V20.8333H50ZM47.9167 20.8333H26.5833V42.1667H47.9167V20.8333ZM39.5833 20.8333H18.25V42.1667H39.5833V20.8333ZM41.6667 20.8333V42.1667H63V20.8333H41.6667ZM29.1667 8.33333V-13H7.83333V8.33333H29.1667ZM29.1667 10.4167H7.83333V31.75H29.1667V10.4167ZM36.5146 28.8271L51.5995 13.7421L36.5146 -1.34281L21.4296 13.7421L36.5146 28.8271ZM48.3458 40.6583L63.4308 55.7433L78.5157 40.6583L63.4308 25.5734L48.3458 40.6583ZM42.3479 46.6562L27.263 31.5713L27.2557 31.5786L27.2484 31.5859L42.3479 46.6562ZM3.34375 7.65L18.4141 22.7495L18.4214 22.7422L18.4287 22.7349L3.34375 7.65ZM9.34167 1.65208L24.4266 -13.4329L9.34167 -28.5178L-5.74328 -13.4329L9.34167 1.65208ZM21.1729 13.4833L36.2579 28.5683L51.3428 13.4833L36.2579 -1.60161L21.1729 13.4833ZM14.1458 20.5104L-0.939112 5.42547L-11.1017 15.5881L-5.50094 28.824L14.1458 20.5104ZM29.4792 35.8625L21.4641 55.6329L34.5667 60.9448L44.5641 50.9474L29.4792 35.8625ZM45.4 40.6583L60.4849 55.7433L75.5699 40.6583L60.4849 25.5734L45.4 40.6583ZM36.5146 31.7729L51.5995 16.688L36.5122 1.60062L21.4272 16.6904L36.5146 31.7729ZM29.9937 38.2958L22.3664 58.2191L35.2943 63.1683L45.0811 53.3784L29.9937 38.2958ZM29.3625 38.0542L36.9898 18.1309L36.9794 18.1269L36.9689 18.1229L29.3625 38.0542ZM11.9521 20.6542L-7.85096 28.5883L-7.84762 28.5967L-7.84427 28.605L11.9521 20.6542ZM11.6958 20.0146L-3.38911 4.92964L-13.3422 14.8827L-8.10721 27.9487L11.6958 20.0146ZM18.2271 13.4833L33.312 28.5683L48.397 13.4833L33.312 -1.60161L18.2271 13.4833ZM9.34167 4.59792L24.4266 -10.487L9.34167 -25.572L-5.74328 -10.487L9.34167 4.59792ZM4.81667 9.12292L19.8837 24.2257L19.8927 24.2168L19.9016 24.2079L4.81667 9.12292ZM40.875 45.1833L25.7901 30.0984L25.7811 30.1073L25.7722 30.1162L40.875 45.1833ZM50.5 2.08333V0H7.83333V2.08333H50.5ZM29.1667 21.3333C29.122 21.3333 29.0338 21.3201 28.9456 21.2828C28.872 21.2516 28.8299 21.2175 28.8062 21.1938C28.7825 21.1701 28.7484 21.128 28.7172 21.0544C28.6799 20.9662 28.6667 20.878 28.6667 20.8333H71.3333C71.3333 -2.43624 52.4362 -21.3333 29.1667 -21.3333V21.3333ZM50 -0.500001H47.9167V42.1667H50V-0.500001ZM69.25 20.8333C69.25 -1.28624 51.2862 -19.25 29.1667 -19.25V23.4167C27.7221 23.4167 26.5833 22.2779 26.5833 20.8333H69.25ZM39.5833 42.1667H41.6667V-0.500001H39.5833V42.1667ZM63 20.8333C63 2.15751 47.8425 -13 29.1667 -13V29.6667C24.2783 29.6667 20.3333 25.7217 20.3333 20.8333H63ZM7.83333 8.33333V10.4167H50.5V8.33333H7.83333ZM29.1667 31.75C23.1283 31.75 18.25 26.8717 18.25 20.8333H60.9167C60.9167 3.30751 46.6925 -10.9167 29.1667 -10.9167V31.75ZM21.4296 43.912L33.2609 55.7433L63.4308 25.5734L51.5995 13.7421L21.4296 43.912ZM33.2609 25.5734L27.263 31.5713L57.4329 61.7412L63.4308 55.7433L33.2609 25.5734ZM27.2484 31.5859C29.2363 29.5941 31.8146 28.6667 34.1375 28.6667V71.3333C42.7479 71.3333 51.1553 68.0309 57.4474 61.7266L27.2484 31.5859ZM34.1375 28.6667C34.7751 28.6667 34.167 28.8074 32.3172 27.8459C30.5801 26.943 28.5151 25.4536 26.531 23.4695C24.5469 21.4854 23.0575 19.4204 22.1545 17.6831C21.193 15.8333 21.3333 15.2243 21.3333 15.8604H-21.3333C-21.3333 31.4028 -12.2187 45.0595 -3.63885 53.6394C4.94062 62.2188 18.5969 71.3333 34.1375 71.3333V28.6667ZM21.3333 15.8604C21.3333 18.1833 20.4059 20.7616 18.4141 22.7495L-11.7266 -7.44953C-18.0309 -1.15742 -21.3333 7.25005 -21.3333 15.8604H21.3333ZM18.4287 22.7349L24.4266 16.737L-5.74328 -13.4329L-11.7412 -7.43495L18.4287 22.7349ZM-5.74328 16.737L6.08797 28.5683L36.2579 -1.60161L24.4266 -13.4329L-5.74328 16.737ZM6.08797 -1.60161L-0.939112 5.42547L29.2308 35.5954L36.2579 28.5683L6.08797 -1.60161ZM-5.50094 28.824C-0.257297 41.2158 8.82251 50.508 21.4641 55.6329L37.4942 16.0921C35.7983 15.4045 34.824 14.6342 33.7926 12.1968L-5.50094 28.824ZM44.5641 50.9474L51.5995 43.912L21.4296 13.7421L14.3942 20.7776L44.5641 50.9474ZM60.4849 25.5734L51.5995 16.688L21.4296 46.8579L30.3151 55.7433L60.4849 25.5734ZM21.4272 16.6904L14.9064 23.2133L45.0811 53.3784L51.6019 46.8555L21.4272 16.6904ZM37.6211 18.3726L36.9898 18.1309L21.7352 57.9774L22.3664 58.2191L37.6211 18.3726ZM36.9689 18.1229C34.5977 17.218 33.0153 15.8577 31.7484 12.7033L-7.84427 28.605C-2.34034 42.3089 7.79401 52.657 21.7561 57.9854L36.9689 18.1229ZM31.7551 12.72L31.4989 12.0804L-8.10721 27.9487L-7.85096 28.5883L31.7551 12.72ZM26.7808 35.0995L33.312 28.5683L3.14214 -1.60161L-3.38911 4.92964L26.7808 35.0995ZM33.312 -1.60161L24.4266 -10.487L-5.74328 19.6829L3.14214 28.5683L33.312 -1.60161ZM-5.74328 -10.487L-10.2683 -5.96203L19.9016 24.2079L24.4266 19.6829L-5.74328 -10.487ZM-10.2504 -5.97987C-16.1956 -0.0487875 -19.25 7.8544 -19.25 15.8604H23.4167C23.4167 18.6956 22.3039 21.8113 19.8837 24.2257L-10.2504 -5.97987ZM-19.25 15.8604C-19.25 30.953 -10.178 44.1049 -2.14146 52.1415C5.89507 60.178 19.047 69.25 34.1396 69.25V26.5833C35.217 26.5833 34.9476 26.8628 33.2806 25.9823C31.7558 25.1769 29.8704 23.8136 28.0284 21.9716C26.1864 20.1296 24.8231 18.2442 24.0177 16.7194C23.1372 15.0524 23.4167 14.783 23.4167 15.8604H-19.25ZM34.1396 69.25C42.1506 69.25 50.0501 66.1922 55.9778 60.2504L25.7722 30.1162C28.1832 27.6995 31.2994 26.5833 34.1396 26.5833V69.25ZM55.9599 60.2683L60.4849 55.7433L30.3151 25.5734L25.7901 30.0984L55.9599 60.2683Z" fill="url(#paint1_linear_1535_505)" mask="url(#path-1-inside-1_1535_505)"/>
<defs>
<linearGradient id="paint0_linear_1535_505" x1="25" y1="0" x2="25" y2="50" gradientUnits="userSpaceOnUse">
<stop stop-color="#FFE482"/>
<stop offset="1" stop-color="#FF8F6D"/>
</linearGradient>
<linearGradient id="paint1_linear_1535_505" x1="25" y1="0" x2="25" y2="50" gradientUnits="userSpaceOnUse">
<stop stop-color="#FFE482"/>
<stop offset="1" stop-color="#FF8F6D"/>
</linearGradient>
</defs>
</svg>
