<svg width="14" height="14" viewBox="0 0 14 14" fill="none" xmlns="http://www.w3.org/2000/svg">
<path d="M13.8282 13.0042L10.3463 9.52233C11.2952 8.36184 11.7617 6.88105 11.6494 5.38624C11.5371 3.89143 10.8545 2.49697 9.7429 1.4913C8.63128 0.485626 7.17565 -0.054318 5.6771 -0.0168494C4.17854 0.0206192 2.75172 0.632634 1.69175 1.6926C0.631779 2.75257 0.0197647 4.1794 -0.0177039 5.67795C-0.0551725 7.17651 0.484772 8.63214 1.49044 9.74375C2.49612 10.8554 3.89058 11.5379 5.38538 11.6502C6.88019 11.7626 8.36099 11.296 9.52147 10.3472L13.0034 13.8291C13.1134 13.9353 13.2608 13.9941 13.4137 13.9928C13.5667 13.9915 13.713 13.9301 13.8211 13.822C13.9293 13.7138 13.9906 13.5675 13.992 13.4146C13.9933 13.2616 13.9345 13.1143 13.8282 13.0042ZM5.83247 10.5C4.90949 10.5 4.00724 10.2263 3.23981 9.71352C2.47238 9.20074 1.87424 8.47191 1.52104 7.61918C1.16783 6.76646 1.07541 5.82815 1.25548 4.92291C1.43554 4.01766 1.88 3.18614 2.53264 2.5335C3.18529 1.88085 4.01681 1.43639 4.92205 1.25633C5.8273 1.07627 6.76561 1.16868 7.61833 1.52189C8.47105 1.8751 9.19989 2.47324 9.71267 3.24067C10.2254 4.0081 10.4991 4.91035 10.4991 5.83333C10.4978 7.07058 10.0056 8.25676 9.13077 9.13163C8.2559 10.0065 7.06972 10.4986 5.83247 10.5Z" fill="#1F1F1F"/>
</svg>
