<svg width="50" height="50" viewBox="0 0 50 50" fill="none" xmlns="http://www.w3.org/2000/svg">
<mask id="path-1-inside-1_1535_493" fill="white">
<path d="M25 14.5833C19.2562 14.5833 14.5833 19.2562 14.5833 25C14.5833 30.7437 19.2562 35.4167 25 35.4167C30.7437 35.4167 35.4167 30.7437 35.4167 25C35.4167 19.2562 30.7437 14.5833 25 14.5833ZM25 33.3333C20.4042 33.3333 16.6667 29.5958 16.6667 25C16.6667 20.4042 20.4042 16.6667 25 16.6667C29.5958 16.6667 33.3333 20.4042 33.3333 25C33.3333 29.5958 29.5958 33.3333 25 33.3333ZM48.9583 23.9583H45.8062C45.2792 13.2979 36.7021 4.72083 26.0417 4.19375V1.04167C26.0417 0.466667 25.575 0 25 0C24.425 0 23.9583 0.466667 23.9583 1.04167V4.19375C13.2979 4.72083 4.72083 13.2979 4.19375 23.9583H1.04167C0.466667 23.9583 0 24.425 0 25C0 25.575 0.466667 26.0417 1.04167 26.0417H4.19375C4.72083 36.7021 13.2979 45.2792 23.9583 45.8062V48.9583C23.9583 49.5333 24.425 50 25 50C25.575 50 26.0417 49.5333 26.0417 48.9583V45.8062C36.7021 45.2792 45.2792 36.7 45.8062 26.0417H48.9583C49.5333 26.0417 50 25.575 50 25C50 24.425 49.5333 23.9583 48.9583 23.9583ZM25 43.75C14.6625 43.75 6.25 35.3396 6.25 25C6.25 14.6604 14.6625 6.25 25 6.25C35.3375 6.25 43.75 14.6604 43.75 25C43.75 35.3396 35.3375 43.75 25 43.75Z"/>
</mask>
<path d="M25 14.5833C19.2562 14.5833 14.5833 19.2562 14.5833 25C14.5833 30.7437 19.2562 35.4167 25 35.4167C30.7437 35.4167 35.4167 30.7437 35.4167 25C35.4167 19.2562 30.7437 14.5833 25 14.5833ZM25 33.3333C20.4042 33.3333 16.6667 29.5958 16.6667 25C16.6667 20.4042 20.4042 16.6667 25 16.6667C29.5958 16.6667 33.3333 20.4042 33.3333 25C33.3333 29.5958 29.5958 33.3333 25 33.3333ZM48.9583 23.9583H45.8062C45.2792 13.2979 36.7021 4.72083 26.0417 4.19375V1.04167C26.0417 0.466667 25.575 0 25 0C24.425 0 23.9583 0.466667 23.9583 1.04167V4.19375C13.2979 4.72083 4.72083 13.2979 4.19375 23.9583H1.04167C0.466667 23.9583 0 24.425 0 25C0 25.575 0.466667 26.0417 1.04167 26.0417H4.19375C4.72083 36.7021 13.2979 45.2792 23.9583 45.8062V48.9583C23.9583 49.5333 24.425 50 25 50C25.575 50 26.0417 49.5333 26.0417 48.9583V45.8062C36.7021 45.2792 45.2792 36.7 45.8062 26.0417H48.9583C49.5333 26.0417 50 25.575 50 25C50 24.425 49.5333 23.9583 48.9583 23.9583ZM25 43.75C14.6625 43.75 6.25 35.3396 6.25 25C6.25 14.6604 14.6625 6.25 25 6.25C35.3375 6.25 43.75 14.6604 43.75 25C43.75 35.3396 35.3375 43.75 25 43.75Z" fill="url(#paint0_linear_1535_493)"/>
<path d="M45.8062 23.9583L24.4989 25.0118L25.5016 45.2917H45.8062V23.9583ZM26.0417 4.19375H4.70833V24.4984L24.9882 25.5011L26.0417 4.19375ZM23.9583 4.19375L25.0118 25.5011L45.2917 24.4984V4.19375H23.9583ZM4.19375 23.9583V45.2917H24.4984L25.5011 25.0118L4.19375 23.9583ZM4.19375 26.0417L25.5011 24.9882L24.4984 4.70833H4.19375V26.0417ZM23.9583 45.8062H45.2917V25.5016L25.0118 24.4989L23.9583 45.8062ZM26.0417 45.8062L24.9882 24.4989L4.70833 25.5016V45.8062H26.0417ZM45.8062 26.0417V4.70833H25.5018L24.499 24.988L45.8062 26.0417ZM25 -6.75C7.47417 -6.75 -6.75 7.47417 -6.75 25H35.9167C35.9167 31.0383 31.0383 35.9167 25 35.9167V-6.75ZM-6.75 25C-6.75 42.5258 7.47417 56.75 25 56.75V14.0833C31.0383 14.0833 35.9167 18.9617 35.9167 25H-6.75ZM25 56.75C42.5258 56.75 56.75 42.5258 56.75 25H14.0833C14.0833 18.9617 18.9617 14.0833 25 14.0833V56.75ZM56.75 25C56.75 7.47417 42.5258 -6.75 25 -6.75V35.9167C18.9617 35.9167 14.0833 31.0383 14.0833 25H56.75ZM25 12C32.1862 12 38 17.8138 38 25H-4.66667C-4.66667 41.3779 8.62209 54.6667 25 54.6667V12ZM38 25C38 32.1862 32.1862 38 25 38V-4.66667C8.62209 -4.66667 -4.66667 8.62209 -4.66667 25H38ZM25 38C17.8138 38 12 32.1862 12 25H54.6667C54.6667 8.62209 41.3779 -4.66667 25 -4.66667V38ZM12 25C12 17.8138 17.8138 12 25 12V54.6667C41.3779 54.6667 54.6667 41.3779 54.6667 25H12ZM48.9583 2.625H45.8062V45.2917H48.9583V2.625ZM67.1136 22.9048C66.0449 1.29072 48.7093 -16.0449 27.0952 -17.1136L24.9882 25.5011C24.9266 25.498 24.8424 25.4793 24.7663 25.4449C24.7007 25.4153 24.662 25.384 24.639 25.361C24.616 25.338 24.5847 25.2993 24.5551 25.2337C24.5207 25.1576 24.502 25.0734 24.4989 25.0118L67.1136 22.9048ZM47.375 4.19375V1.04167H4.70833V4.19375H47.375ZM47.375 1.04167C47.375 -11.3154 37.3571 -21.3333 25 -21.3333V21.3333C13.7929 21.3333 4.70833 12.2487 4.70833 1.04167H47.375ZM25 -21.3333C12.6429 -21.3333 2.625 -11.3154 2.625 1.04167H45.2917C45.2917 12.2487 36.2071 21.3333 25 21.3333V-21.3333ZM2.625 1.04167V4.19375H45.2917V1.04167H2.625ZM22.9048 -17.1136C1.29072 -16.0449 -16.0449 1.29072 -17.1136 22.9048L25.5011 25.0118C25.498 25.0734 25.4793 25.1576 25.4449 25.2337C25.4153 25.2993 25.384 25.338 25.361 25.361C25.338 25.384 25.2993 25.4153 25.2337 25.4449C25.1576 25.4793 25.0734 25.498 25.0118 25.5011L22.9048 -17.1136ZM4.19375 2.625H1.04167V45.2917H4.19375V2.625ZM1.04167 2.625C-11.3154 2.625 -21.3333 12.6429 -21.3333 25H21.3333C21.3333 36.2071 12.2487 45.2917 1.04167 45.2917V2.625ZM-21.3333 25C-21.3333 37.3571 -11.3154 47.375 1.04167 47.375V4.70833C12.2487 4.70833 21.3333 13.7929 21.3333 25H-21.3333ZM1.04167 47.375H4.19375V4.70833H1.04167V47.375ZM-17.1136 27.0952C-16.0449 48.7093 1.29072 66.0449 22.9048 67.1136L25.0118 24.4989C25.0734 24.502 25.1576 24.5207 25.2337 24.5551C25.2993 24.5847 25.338 24.616 25.361 24.639C25.384 24.662 25.4153 24.7007 25.4449 24.7663C25.4793 24.8424 25.498 24.9266 25.5011 24.9882L-17.1136 27.0952ZM2.625 45.8062V48.9583H45.2917V45.8062H2.625ZM2.625 48.9583C2.625 61.3154 12.6429 71.3333 25 71.3333V28.6667C36.2071 28.6667 45.2917 37.7513 45.2917 48.9583H2.625ZM25 71.3333C37.3571 71.3333 47.375 61.3154 47.375 48.9583H4.70833C4.70833 37.7513 13.7929 28.6667 25 28.6667V71.3333ZM47.375 48.9583V45.8062H4.70833V48.9583H47.375ZM27.0952 67.1136C48.7108 66.0448 66.0449 48.7057 67.1135 27.0954L24.499 24.988C24.502 24.9255 24.5209 24.841 24.5552 24.7651C24.5848 24.6997 24.6158 24.6614 24.6385 24.6388C24.6611 24.6161 24.6995 24.585 24.7651 24.5553C24.8413 24.5209 24.9259 24.502 24.9882 24.4989L27.0952 67.1136ZM45.8062 47.375H48.9583V4.70833H45.8062V47.375ZM48.9583 47.375C61.3154 47.375 71.3333 37.3571 71.3333 25H28.6667C28.6667 13.7929 37.7513 4.70833 48.9583 4.70833V47.375ZM71.3333 25C71.3333 12.6429 61.3154 2.625 48.9583 2.625V45.2917C37.7513 45.2917 28.6667 36.2071 28.6667 25H71.3333ZM25 22.4167C26.443 22.4167 27.5833 23.556 27.5833 25H-15.0833C-15.0833 47.1232 2.88197 65.0833 25 65.0833V22.4167ZM27.5833 25C27.5833 26.444 26.443 27.5833 25 27.5833V-15.0833C2.88197 -15.0833 -15.0833 2.8768 -15.0833 25H27.5833ZM25 27.5833C23.557 27.5833 22.4167 26.444 22.4167 25H65.0833C65.0833 2.8768 47.118 -15.0833 25 -15.0833V27.5833ZM22.4167 25C22.4167 23.556 23.557 22.4167 25 22.4167V65.0833C47.118 65.0833 65.0833 47.1232 65.0833 25H22.4167Z" fill="url(#paint1_linear_1535_493)" mask="url(#path-1-inside-1_1535_493)"/>
<defs>
<linearGradient id="paint0_linear_1535_493" x1="25" y1="0" x2="25" y2="50" gradientUnits="userSpaceOnUse">
<stop stop-color="#FFE482"/>
<stop offset="1" stop-color="#FF8F6D"/>
</linearGradient>
<linearGradient id="paint1_linear_1535_493" x1="25" y1="0" x2="25" y2="50" gradientUnits="userSpaceOnUse">
<stop stop-color="#FFE482"/>
<stop offset="1" stop-color="#FF8F6D"/>
</linearGradient>
</defs>
</svg>
